<?xml version="1.0" encoding="UTF-8" standalone="no"?>
<!-- Created with Inkscape (http://www.inkscape.org/) -->

<svg
   xmlns:dc="http://purl.org/dc/elements/1.1/"
   xmlns:cc="http://creativecommons.org/ns#"
   xmlns:rdf="http://www.w3.org/1999/02/22-rdf-syntax-ns#"
   xmlns:svg="http://www.w3.org/2000/svg"
   xmlns="http://www.w3.org/2000/svg"
   xmlns:xlink="http://www.w3.org/1999/xlink"
   xmlns:sodipodi="http://sodipodi.sourceforge.net/DTD/sodipodi-0.dtd"
   xmlns:inkscape="http://www.inkscape.org/namespaces/inkscape"
   width="23.874512mm"
   height="20.758768mm"
   viewBox="0 0 84.594727 73.55469"
   id="svg4157"
   version="1.1"
   inkscape:version="0.91 r13725"
   sodipodi:docname="fig-5-2-61-VI.svg">
  <defs
     id="defs4159">
    <clipPath
       id="clip4">
      <path
         inkscape:connector-curvature="0"
         d="m 160,232 4.48437,0 0,4 L 160,236 Z m 0,0"
         id="path3671" />
    </clipPath>
    <clipPath
       id="clip3">
      <path
         inkscape:connector-curvature="0"
         d="m 96,176.44141 5,0 0,5.55859 -5,0 z m 0,0"
         id="path3668" />
    </clipPath>
    <clipPath
       id="clip2">
      <path
         inkscape:connector-curvature="0"
         d="m 94,176.44141 69,0 0,61.55859 -69,0 z m 0,0"
         id="path3665" />
    </clipPath>
  </defs>
  <sodipodi:namedview
     id="base"
     pagecolor="#ffffff"
     bordercolor="#666666"
     borderopacity="1.0"
     inkscape:pageopacity="0.0"
     inkscape:pageshadow="2"
     inkscape:zoom="1.979899"
     inkscape:cx="-127.89533"
     inkscape:cy="33.122431"
     inkscape:document-units="px"
     inkscape:current-layer="layer1"
     showgrid="false"
     fit-margin-top="0"
     fit-margin-left="0"
     fit-margin-right="0"
     fit-margin-bottom="0"
     inkscape:window-width="1366"
     inkscape:window-height="715"
     inkscape:window-x="0"
     inkscape:window-y="0"
     inkscape:window-maximized="1" />
  <metadata
     id="metadata4162">
    <rdf:RDF>
      <cc:Work
         rdf:about="">
        <dc:format>image/svg+xml</dc:format>
        <dc:type
           rdf:resource="http://purl.org/dc/dcmitype/StillImage" />
        <dc:title></dc:title>
      </cc:Work>
    </rdf:RDF>
  </metadata>
  <g
     inkscape:label="Layer 1"
     inkscape:groupmode="layer"
     id="layer1"
     transform="translate(-894.8455,-855.58487)">
    <path
       inkscape:connector-curvature="0"
       style="fill:#ee2e2b;fill-opacity:1;fill-rule:nonzero;stroke:none"
       d="m 974.1082,923.07998 -7.42676,3.14453 1.7334,-3.07128 -1.81153,-3.02247 7.50489,2.94922"
       id="path3688" />
    <g
       transform="matrix(1.25,0,0,1.25,773.98612,634.42764)"
       style="fill:#211e1e;fill-opacity:1"
       id="g3704">
      <use
         height="100%"
         width="100%"
         xlink:href="#glyph0-1"
         x="125.4317"
         y="248.7327"
         id="use3706" />
      <use
         height="100%"
         width="100%"
         xlink:href="#glyph0-2"
         x="131.9297"
         y="248.7327"
         id="use3708" />
    </g>
    <g
       transform="matrix(1.25,0,0,1.25,773.98612,634.42764)"
       style="clip-rule:nonzero"
       clip-path="url(#clip2)"
       id="g3710">
      <path
         inkscape:connector-curvature="0"
         style="fill:none;stroke:#ee2e2b;stroke-width:1.20000005;stroke-linecap:butt;stroke-linejoin:miter;stroke-miterlimit:4;stroke-opacity:1"
         d="m 560.55717,202.19123 -0.52735,0.0742 c -49.47265,0.004 -52.36328,12.19141 -53.6914,46.69922 l -0.008,0.53515"
         transform="matrix(1,0,0,-1,-405.0142,433.1717)"
         id="path3712" />
    </g>
    <path
       inkscape:connector-curvature="0"
       style="fill:none;stroke:#000000;stroke-width:0.875;stroke-linecap:butt;stroke-linejoin:miter;stroke-miterlimit:4;stroke-opacity:1"
       d="m 975.72928,927.00576 -78.75,0 0,-67.70996"
       id="path3714" />
    <g
       transform="matrix(1.25,0,0,1.25,773.98612,634.42764)"
       style="clip-rule:nonzero"
       clip-path="url(#clip3)"
       id="g3716">
      <path
         inkscape:connector-curvature="0"
         style="fill:#000000;fill-opacity:1;fill-rule:nonzero;stroke:none"
         d="m 98.394531,176.92578 1.707029,4.18359 -1.707029,-0.99218 -1.707031,0.99218 1.707031,-4.18359"
         id="path3718" />
    </g>
    <g
       transform="matrix(1.25,0,0,1.25,773.98612,634.42764)"
       style="clip-rule:nonzero"
       clip-path="url(#clip4)"
       id="g3720">
      <path
         inkscape:connector-curvature="0"
         style="fill:#000000;fill-opacity:1;fill-rule:nonzero;stroke:none"
         d="m 164.36328,234.0625 -4.17969,1.70703 0.99219,-1.70703 -0.99219,-1.70703 4.17969,1.70703"
         id="path3722" />
    </g>
    <path
       inkscape:connector-curvature="0"
       style="fill:#ee2e2b;fill-opacity:1;fill-rule:nonzero;stroke:none"
       d="m 900.39726,858.33389 3.35449,7.33399 -3.12011,-1.6504 -2.97364,1.89942 2.73926,-7.58301"
       id="path3724" />
  </g>
</svg>
